<?xml version="1.0" encoding="utf-8"?>
<!-- Generator: Adobe Illustrator 27.4.0, SVG Export Plug-In . SVG Version: 6.00 Build 0)  -->
<svg version="1.1" id="Layer_1" xmlns="http://www.w3.org/2000/svg" xmlns:xlink="http://www.w3.org/1999/xlink" x="0px" y="0px"
	 viewBox="0 0 800 800" style="enable-background:new 0 0 800 800;" xml:space="preserve">
<style type="text/css">
	.st0{fill:none;stroke:#EB6727;stroke-width:66.6667;stroke-linecap:round;stroke-linejoin:round;stroke-miterlimit:10;}
	.st1{fill:#EB6727;}
</style>
<path class="st0" d="M210,166.7h490L633.3,400H245.9 M666.7,533.3h-400L200,100H100 M300,666.7c0,18.4-14.9,33.3-33.3,33.3
	s-33.3-14.9-33.3-33.3s14.9-33.3,33.3-33.3S300,648.3,300,666.7z M666.7,666.7c0,18.4-14.9,33.3-33.3,33.3S600,685.1,600,666.7
	s14.9-33.3,33.3-33.3S666.7,648.3,666.7,666.7z"/>
<polygon class="st1" points="216,166.7 253,400 621,400 686,166.7 233.3,166.7 "/>
</svg>
