<?xml version="1.0" encoding="UTF-8" standalone="no"?>
<!-- Created with Inkscape (http://www.inkscape.org/) -->

<svg
   xmlns:dc="http://purl.org/dc/elements/1.1/"
   xmlns:cc="http://creativecommons.org/ns#"
   xmlns:rdf="http://www.w3.org/1999/02/22-rdf-syntax-ns#"
   xmlns:svg="http://www.w3.org/2000/svg"
   xmlns="http://www.w3.org/2000/svg"
   xmlns:sodipodi="http://sodipodi.sourceforge.net/DTD/sodipodi-0.dtd"
   xmlns:inkscape="http://www.inkscape.org/namespaces/inkscape"
   id="svg2876"
   version="1.1"
   inkscape:version="0.47 r22583"
   width="419.75647"
   height="191"
   sodipodi:docname="Logo Hunter x Hunter.svg">
  <metadata
     id="metadata2882">
    <rdf:RDF>
      <cc:Work
         rdf:about="">
        <dc:format>image/svg+xml</dc:format>
        <dc:type
           rdf:resource="http://purl.org/dc/dcmitype/StillImage" />
        <dc:title></dc:title>
      </cc:Work>
    </rdf:RDF>
  </metadata>
  <path
     style="fill:#ffffff;fill-opacity:1;stroke:none"
     d="m 0,94 c 0,0 29,0 29,0 0,0 0,-28 0,-28 0,0 12,0 12,0 0,0 -0.07014,18.851762 0,28 9.666667,0 29,0 29,0 0,0 0,-81 0,-81 0,0 -29,0 -29,0 0,0 0,27 0,27 0,0 -12,0 -12,0 C 29,40 29,0 29,0 29,0 0,0 0,0 0,0 0,94 0,94 z M 114,13 c 0,0 0,35.314517 0,49 0,4 -1.97881,6 -6,6 -4,0 -6,-2 -6,-6 0,-16.1014 0,-49 0,-49 0,0 -29.0625,0 -29.0625,0 0,0 0.0625,27.728136 0.0625,49 0,21.095023 11.146771,32 35,32 24,0 35,-12 35,-32 0,-13.493446 0,-49 0,-49 0,0 -29,0 -29,0 z m 233,81 c 0,0 29,0 29,0 0,0 0,-22 0,-22 0,0 11,22 11,22 0,0 32.75647,0 32.75647,0 0,0 -18.90552,-33 -18.90552,-33 C 409.1875,57.46875 412,53 412,40.536905 412,21 404,13 384.49237,13 384.49237,13 347,13 347,13 c 0,0 0,81 0,81 z M 217,12.96875 c 0,0 0,25.03125 0,25.03125 0,0 17,0 17,0 0,0 -0.0312,56 -0.0312,56 0,0 28.03125,0 28.03125,0 0,0 0,-56 0,-56 0,0 20,0 20,0 0,0 0,-25 0,-25 0,0 -65,-0.03125 -65,-0.03125 l -5e-5,0 z m 68,0 c 0,0 0,81.03125 0,81.03125 0,0 59,0 59,0 0,0 0,-25 0,-25 0,0 -30,0 -30,0 0,0 0,-4 0,-4 0,0 27,0 27,0 0,0 0,-23 0,-23 0,0 -27,0 -27,0 0,0 0,-4 0,-4 0,0 30,0 30,0 0,0 0,-25 0,-25 0,0 -59,-0.03125 -59,-0.03125 z M 146,94 c 0,0 26.96875,0 26.96875,0 0,0 0.0312,-23.203125 0.0312,-23.203125 0,0 13.38964,23.203125 13.38964,23.203125 0,0 27.61036,0 27.61036,0 0,0 0,-81 0,-81 0,0 -26.96875,0 -26.96875,0 C 187.0312,13 187,38.347656 187,38.347656 187,38.347656 175.33146,13 175.33146,13 175.33146,13 146,13 146,13 c 0,0 0,81 0,81 z M 381.46393,39 C 382.59081,39 383,39.424418 383,40.491751 383,41.559141 382.53364,42 381.54356,42 c -1.84217,0 -6.07481,0 -6.07481,0 0,0 0.0234,-3 0.0234,-3 0,0 5.97178,0 5.97178,0 z M 173,97 c 0,0 -27,0 -27,0 0,0 0,81 0,81 0,0 29.43024,0 29.43024,0 0,0 11.56976,-25.28125 11.56976,-25.28125 0,0 0,25.28125 0,25.28125 0,0 27,0 27,0 0,0 0,-81 0,-81 0,0 -27.48738,0 -27.48738,0 0,0 -13.51262,23.16004 -13.51262,23.16004 0,0 0,-23.16004 0,-23.16004 z m 174,0 c 0,0 0,81 0,81 0,0 19.34692,0 37.48432,0 C 405,178 412,170 412,150.46967 412,138 408.58773,133.23202 400.86719,130 c 0,0 18.85156,-33 18.85156,-33 0,0 -32.71875,0 -32.71875,0 0,0 -11,22 -11,22 0,0 0,-22 0,-22 0,0 -29,0 -29,0 z m -62,-0.03125 c 0,0 0,81.03125 0,81.03125 0,0 59,0 59,0 0,0 0,-25 0,-25 0,0 -30,0 -30,0 0,0 0,-4 0,-4 0,0 27,0 27,0 0,0 0,-23 0,-23 0,0 -27,0 -27,0 0,0 -5e-5,-4 -5e-5,-4 0,0 30,0 30,0 0,0 0,-25 0,-25 0,0 -59,-0.03125 -59,-0.03125 l 5e-5,0 z M 0,191 c 0,0 29,0 29,0 0,0 0,-40 0,-40 0,0 12,0 12,0 0,0 0,27 0,27 0,0 29,0 29,0 0,0 0,-81 0,-81 0,0 -29,0 -29,0 0,0 0,28 0,28 0,0 -12,0 -12,0 0,0 0,-28 0,-28 0,0 -29,0 -29,0 0,0 0,94 0,94 z m 73,-62 c 0,15.5592 0,49 0,49 0,0 29,0 29,0 0,0 0,-34 0,-49 0,-4 1.54672,-6 6,-6 4.454,0 6,2.45319 6,6 0,12.2603 0,49 0,49 0,0 29,0 29,0 0,0 0,-27.72841 0,-49 0,-20.45249 -12.47358,-32 -35,-32 -22.526451,0 -35,11.53327 -35,32 z m 161,24 c 0,0 -17,0 -17,0 0,0 0,25 0,25 0,0 65,0 65,0 0,0 0,-25 0,-25 0,0 -20,0 -20,0 0,0 0,-56 0,-56 0,0 -28,0 -28,0 0,0 -0.1249,37.3334 0,56 z m 148,-2.57355 C 382,151.522 381.66192,152 380.4375,152 c 0,0 -4.93456,0 -4.93456,0 0,0 0.0596,-3 0.0596,-3 0,0 4.89547,0 4.89547,0 0.93208,0 1.54203,0.32996 1.54203,1.42645 l -4e-5,0 z"
     id="path3822"
     sodipodi:nodetypes="ccccccccccccccszsccszsccccccccscccccccccccccccccccccccccccccccccccccczscccccccccccccccssccccccccccccccccccccccccccccccccccczsccszscccccccccccccccczcc" />
  <path
     style="fill:#54a12f;fill-opacity:0.94117647;stroke:none"
     d="m 6,6 c 0,0 0,82 0,82 l 17,0 0,-28 24,0 c 0,0 0,28 0,28 0,0 17,0 17,0 0,0 0,-69 0,-69 l -17,0 0,27 -24,0 C 23,46 23,6 23,6 L 6,6 z"
     id="path2888"
     sodipodi:nodetypes="ccccccccccccc" />
  <path
     style="fill:#138525;fill-opacity:1;stroke:none"
     d="m 370,103 c 0,0 -17,0 -17,0 l 0,69 c 0,0 19.15562,0 31.48895,0 C 399,172 406,165 406,150.51744 406,136.1492 397,135 392,133.4924 c 0,0 18,-30.4924 18,-30.4924 0,0 -19,0 -19,0 0,0 -14,27 -14,27 l -7,0 c 0,0 0,-27 0,-27 z m -364,82 17,0 0,-40 24,0 c 0,0 0,27 0,27 0,0 17,0 17,0 0,0 0,-69 0,-69 l -17,0 0,28 -24,0 0,-28 c 0,0 -17,0 -17,0 l 0,82 z m 102,-82 c -20,0 -29,9 -29,29 0,0 0,40 0,40 0,0 17,0 17,0 0,0 0,-28.66667 0,-43 0,-8 3.9397,-12 12,-12 8,0 12,4 12,12 0,14.33333 0,43 0,43 l 17,0 c 0,0 0,-40 0,-40 0,-20 -9.30104,-29 -29,-29 z m 44,0 c 0,0 0,69 0,69 l 19,0 c 0,0 15,-31 15,-31 0,0 7,0 7,0 l 0,31 c 0,0 15,0 15,0 l 0,-69 -18,0 c 0,0 -16,27 -16,27 0,0 -7,0 -7,0 l 0,-27 c 0,0 -15,0 -15,0 z m 139,0 c 0,0 0,69 0,69 l 47,0 0,-13 -30,0 0,-16 c 0,0 27,0 27,0 0,0 0,-11 0,-11 0,0 -27,0 -27,0 l 0,-16 c 0,0 30,0 30,0 l 0,-13 -47,0 z m -51,0 c 0,0 0,56 0,56 0,0 -17,0 -17,0 0,0 0,13 0,13 l 53,0 0,-13 -20,0 0,-56 c 0,0 -16,0 -16,0 z m 142.47272,40 c 5,0 7.52728,2.56636 7.52728,7.52383 0,4.95746 -2.38931,7.47617 -7.55283,7.47617 0,0 -12.44717,0 -12.44717,0 0,0 0,-15 0,-15 0,0 8.47272,0 12.47272,0 z"
     id="path2903"
     sodipodi:nodetypes="cccszccccccccccccccccccccsccszsccszcccccccccccccccccccccccccccccccccccczsccs" />
  <path
     style="fill:#abcc12;fill-opacity:1;stroke:none"
     d="m 291,19 0,69 47,0 0,-13 -30,0 0,-16 27,0 c 0,0 0,-11 0,-11 0,0 -27,0 -27,0 l 0,-16 c 0,0 30,0 30,0 l 0,-13 c 0,0 -47,0 -47,0 z M 79,59 c 0,20 8.91056,29 29,29 20,0 29,-9 29,-29 l 0,-40 -17,0 c 0,0 0,29 0,43 0,8 -4,12 -12,12 -7.86766,0 -12,-4 -12,-12 0,0 0,-43 0,-43 0,0 -17,0 -17,0 0,0 0,19.895027 0,40 z m 73,29 15,0 c 0,0 0,-27 0,-27 0,0 7,0 7,0 0,0 16,27 16,27 l 18,0 0,-69 -15,0 c 0,0 0,31 0,31 0,0 -7,0 -7,0 0,0 -15,-31 -15,-31 0,0 -19,0 -19,0 0,0 0,69 0,69 z m 71,-56 17,0 c 0,0 0,56 0,56 0,0 16,0 16,0 0,0 0,-56 0,-56 0,0 20,0 20,0 l 0,-13 c 0,0 -53,0 -53,0 0,0 0,13 0,13 z M 353,19 c 0,0 0,69 0,69 0,0 17,0 17,0 0,0 0,-27 0,-27 0,0 7,0 7,0 0,0 14,27 14,27 0,0 20,0 20,0 0,0 -19,-30.48895 -19,-30.48895 C 397,56 406,55 406,40.527279 406,26 400,19 384.50173,19 L 353,19 z m 29.46685,14 C 387.4469,33 390,35.435639 390,40.472721 390,45.535356 387.57493,48 382.5145,48 380.5145,48 370,48 370,48 c 0,0 0,-15 0,-15 0,0 8.46685,0 12.46685,0 z"
     id="path3719"
     sodipodi:nodetypes="cccccccccccccczsccszscczccccccccccccccccccccccccccccccsscczsccs" />
  <path
     style="fill:#304438;fill-opacity:1;stroke:none"
     d="M 4,88 0,92 0,2 4,6 4,88 z m 2,2 -4,4 25,0 -4,-4 -17,0 z M 25.0442,87.8826 29,92 29,68 25,64 25.0442,87.8826 z M 27,62 l 4,4 8,0 4,-4 -16,0 z m 18,2 -4,4 0,24 4,-4 0,-24 z m 2,26 -4,4 25,0 -4,-4 -17,0 z m 19,-2 4,4 0,-77 -4,4 0,69 z m 2,-75 -4,4 -17,0 -4,-4 25,0 z m -23,6 -4,-4 0,23 4,4 0,-23 z m -2,25 -4,-4 -8,0 -4,4 16,0 z M 25,42 29,38 29,2 25,6 25,42 z M 23,4 27,0 2,0 6,4 23,4 z m 0,97 -17,0 -4,-4 25,0 -4,4 z m -19,2 -4,-4 0,90 4,-4 0,-82 z m 2,84 -4,4 25,0 -4,-4 -17,0 z m 23,2 -4,-4 0,-36 4,4 0,36 z m 2,-38 8,0 4,-4 -16,0 4,4 z m 14,-2 -4,4 0,23 4,-4 0,-23 z m -2,29 25,0 -4,-4 -17,0 -4,4 z m 23,-6 4,4 0,-77 -4,4 0,69 z m -2,-71 4,-4 -25,0 4,4 17,0 z m -19,2 -4,-4 0,24 4,4 0,-24 z m -2,26 -16,0 4,-4 8,0 4,4 z m -18,-2 4,-4 0,-24 -4,4 0,24 z m 48,-112 0,44 4,0 0,-40 -4,-4 z m 0,47 c 0,21 11,32 35,32 23.97725,0 35,-12 35,-32 0,0 -4,0 -4,0 0,18 -10.06166,28 -31,28 C 87,90 77,80 77,62 l -4,0 z m 66,-3 4,0 0,-44 -4,4 0,40 z m -2,-42 4,-4 -25,0 4,4 17,0 z m -19,2 -4,-4 c 0,0 0,45 0,47 0,4 -2,6 -6,6 -3.77205,0 -6,-2 -6,-6 0,-3 0,-47 0,-47 l -4,4 c 0,0 0,39 0,43 0,6 3,10 10,10 6.77936,0 10,-4 10,-10 0,-5 0,-43 0,-43 z m -22,-2 4,-4 -25,0 4,4 17,0 z m -23,159 4,-4 0,-40 -3.95511,-0.0387 L 73,176 z m 6,-2 -4,4 25,0 -4,-4 -17,0 z m 23,2 c 0,0 0,-46 0,-47 0,-4 1.72793,-6 6,-6 4,0 6,2 6,6 0,1.36529 0,47 0,47 l 4,-4 c 0,0 0,-41 0,-43 0,-6 -3.09492,-10 -10,-10 -7,0 -10,4 -10,10 0,4 0,43 0,43 l 4,4 z m 14,2 25,0 -4,-4 -17,0 -4,4 z m 27,-2 0,-44 -4,0 0,40 4,4 z m 0,-47 -4,0 c 0,-18 -10.32475,-28 -31,-28 -21,0 -31,10 -31,28 l -4,0 c 0,-20 12,-32 35,-32 22.89093,0 35,12 35,32 z m 7,-110 0,69 -4,4 0,-77 4,4 z m -2,75 25,0 0,-17 -4,-7 0,20 -17,0 -4,4 z m 21,-31 0,1 17.57838,30 27.42162,0 0,-79 -4,4 0,71 -21,0 -16,-27 -4,0 z m 43,-50 -4,4 -15,0 -4,-4 23,0 z m -25,2 0,18 4,8 0,-22 -4,-4 z m 4,33 0,-1 -14.5145,-31.536602 -3.02556,3.076657 L 187,48 l 4,0 z m -20,-31 4,-4 -27,0 4,4 19,0 z m -21,86 -4,-4 0,77 4,-4 0,-69 z m -2,75 27,0 -4,-4 -19,0 -4,4 z m 25.35773,-5.48895 3.20442,3.0511 L 191,144 l 0,-1 -4,0 -13.64227,29.51105 z M 191,150 l -4,9 0,17 4,-4 0,-22 z m -2,28 23,0 -4,-4 -15,0 -4,4 z m 21,-6 4,4 0,-79 -27.52797,0 L 169,127 l 0,1 4,0 16,-27 21,0 0,71 z m -41,-51 4,-7 0,-17 -25,0 4,4 17,0 0,20 z m 48,-106 0,21 4,-4 0,-13 -4,-4 z m 6,19 -4,4 13,0 4,-4 -13,0 z m 11,6 0,54 28,0 0,-54 -4,-4 0,54 -20,0 0,-54 -4,4 z m 26,-6 4,4 16,0 -4,-4 -16,0 z m 22,2 0,-21 -4,4 0,13 4,4 z m -6,-19 4,-4 -61,0 4,4 53,0 z m -59,138 0,21 4,-4 0,-13 -4,-4 z m 2,23 61,0 -4,-4 -53,0 -4,4 z m 59,-6 4,4 0,-21 -4,4 0,13 z m 2,-19 -16,0 -4,4 16,0 4,-4 z m -18,-2 0,-54 -28,0 0,54 4,4 0,-54 20,0 0,54 4,-4 z m -30,2 -13,0 4,4 13,0 -4,-4 z m 53,-138 0,79 57,0 -4,-4 -49,0 0,-71 -4,-4 z m 59,77 0,-21 -4,4 0,13 4,4 z m -6,-19 4,-4 -26,0 -4,4 26,0 z m -24,-6 -4,-4 0,8 4,-4 z m 2,-2 23,0 -4,-4 -23,0 4,4 z m 21,-6 4,4 0,-19 -4,4 0,11 z m 2,-17 -4,4 -23,0 4,-4 23,0 z m -25,-2 -4,-4 0,8 4,-4 z m -2,-6 4,4 26,0 -4,-4 -26,0 z m 28,-2 4,4 0,-21 -4,4 0,13 z m 2,-19 -4,4 -47,0 -4,-4 55,0 z m 9,6 0,69 -4,4 0,-77 4,4 z m 2,71 -4,4 25,0 -4,-4 -17,0 z m 19,-2 4,4 0,-14 -4,-8 0,18 z m -87,88 4,-4 0,-71 49,0 4,-4 -57,0 0,79 z m 2,2 55,0 -4,-4 -47,0 -4,4 z m 53,-6 4,4 0,-21 -4,4 0,13 z m 2,-19 -4,4 -26,0 4,-4 26,0 z m -32,2 4,-4 -4,-4 0,8 z m 2,-10 4,4 23,0 -4,-4 -23,0 z m 25,-2 4,4 0,-19 -4,4 0,11 z m -2,-13 -23,0 4,-4 23,0 -4,4 z m -21,-6 -4,-4 0,8 4,-4 z m -2,-6 4,4 26,0 -4,-4 -26,0 z m 32,2 0,-21 -4,4 0,13 4,4 z m 32,-57 -4,0 0,1 14,28 3,-3 -13,-26 z m 12,31 29,0 -6,-4 -20,0 -3,4 z M 418.06354,91 412,87 395.54006,59 402,63 418.06354,91 z M 397.92818,58.01174 403,60 c 6,-3 9,-7 9,-19.49479 C 412,21 404,13 384.47272,13 L 349,13 l 4,4 31.49827,0 C 401,17 408,24 408,40.523278 408,51 406,55 397.92818,58.01174 z M 372,44 375.48895,40.51105 372,37 l 0,7 z m 2,2 8,0 c 4,0 6,-2.076705 6,-5.440608 C 388,37 386,35 382,35 l -8,0 4,4 c 0,0 2.31735,0 3.47602,0 C 382.53784,39 383,39.495122 383,40.50521 383,41.527752 382.50032,42 381.45544,42 L 378,42 l -4,4 z m -27,53 0,77 4,-4 0,-69 -4,-4 z m 2,79 35.55453,0 C 405,178 412,170 412,150.46419 412,139 409,134 403,131 l -5,2 c 8,3 10,8 10,17.50033 C 408,168 402,174 384.48226,174 L 353,174 l -4,4 z m 46.43988,-46 6.56012,-4 16,-28 -7,4 -15.56012,28 z M 410,101 l 7,-4 -29,0 3,4 19,0 z m -21,1 -3,-3 -14,28 0,1 4,0 13,-26 z m -13,11 0,-14 -4,4 0,18 4,-8 z m -2,-16 -25,0 4,4 17,0 4,-4 z m -2,50 0,7 3.52339,-3.51411 L 372,147 z m 1.9634,-1.95649 8.48207,-0.0435 c 4,0 5.55453,2 5.55453,5.46064 C 388,153.81358 386.51774,156 382.51774,156 L 374,156 l 4,-4 2.58443,0 C 381.53481,152 382,151.466 382,150.48619 382,149.50726 381.49508,149 380.43988,149 L 378,149 l -4.0366,-3.95649 z"
     id="path3775"
     sodipodi:nodetypes="cccccccccccccccccccccccccccccccccccccccccccccccccccccccccccccccccccccccccccccccccccccccccccccccccccccccccccccccccccccccccccccczcczccccccccccccccszsccszscccccccccccccccccszsccszscccccccccccccczcczccccccccccccccccccccccccccccccccccccccccccccccccccccccccccccccccccccccccccccccccccccccccccccccccccccccccccccccccccccccccccccccccccccccccccccccccccccccccccccccccccccccccccccccccccccccccccccccccccccccccccccccccccccccccccccccccccccccccccccccccccccccccccccccccccccccccccccccccccccccccccccccccccccccccccssccssccccccszsccszsccccccccssccsscccccccccccccccccccccccccccccccccczcccczccc" />
  <rect
     style="fill:#000000;fill-opacity:1;stroke:none"
     id="rect3787"
     width="171"
     height="19"
     x="164"
     y="86" />
  <path
     style="fill:#fe2016;fill-opacity:1;stroke:#000000;stroke-width:2;stroke-linecap:butt;stroke-linejoin:miter;stroke-miterlimit:4;stroke-opacity:1;stroke-dasharray:none"
     d="m 212,71 25,24 -25,25 13,13 24.53425,-24.48005 L 274,133 287,120 262.51215,95.59626 287,71 274,58 249.5366,82.459945 225,58 212,71 z"
     id="path3789"
     sodipodi:nodetypes="ccccccccccccc" />
  <path
     style="fill:none;stroke:#ffffff;stroke-width:2.5;stroke-linecap:round;stroke-linejoin:round;stroke-miterlimit:4;stroke-opacity:1;stroke-dasharray:none"
     d="m 170.28454,100.78314 c 1.45268,-2.30842 2.55229,-5.1 3.20441,-7.83425 m 3.08149,-0.75138 c 2.21316,2.34347 3.32027,5.17851 4.32735,8.05801 m 3.84945,-10 c 0,0 2.71616,3.28108 2.71616,3.28108 m -2.25622,7.24654 c 2.99263,-1.42281 6.18331,-3.87405 8.69061,-6.52762 m 5.61878,1.57044 C 200.71062,93.97901 202.39117,92.35148 205,92 c 2.41063,-0.32479 3.39448,1.73763 1.69337,3.20442 -2.33418,2.01264 -4.91844,3.59491 -7.79558,5.0511 m 11.81077,-4.37845 10.13813,-0.0304"
     id="path3797"
     sodipodi:nodetypes="cccccccccssccc" />
  <path
     sodipodi:nodetypes="cccccccccssccc"
     id="path3799"
     d="m 278.5373,100.7645 c 1.45268,-2.30842 2.55229,-5.1 3.20441,-7.83425 m 3.08149,-0.75138 c 2.21316,2.34347 3.32027,5.17851 4.32735,8.05801 m 3.84945,-10 c 0,0 2.71616,3.28108 2.71616,3.28108 m -2.25622,7.24654 c 2.99263,-1.42281 6.18331,-3.87405 8.69061,-6.52762 m 5.61878,1.57044 c 1.19405,-1.84695 2.8746,-3.47448 5.48343,-3.82596 2.41063,-0.32479 3.39448,1.73763 1.69337,3.20442 -2.33418,2.01264 -4.91844,3.59491 -7.79558,5.0511 m 11.81077,-4.37845 10.13813,-0.0304"
     style="fill:none;stroke:#ffffff;stroke-width:2.5;stroke-linecap:round;stroke-linejoin:round;stroke-miterlimit:4;stroke-opacity:1;stroke-dasharray:none" />
</svg>
