<?xml version="1.0" encoding="utf-8"?>
<!-- Generator: Adobe Illustrator 27.4.0, SVG Export Plug-In . SVG Version: 6.00 Build 0)  -->
<svg version="1.1"
	 id="svg8" xmlns:dc="http://purl.org/dc/elements/1.1/" xmlns:inkscape="http://www.inkscape.org/namespaces/inkscape" xmlns:sodipodi="http://sodipodi.sourceforge.net/DTD/sodipodi-0.dtd" xmlns:cc="http://creativecommons.org/ns#" xmlns:svg="http://www.w3.org/2000/svg" xmlns:rdf="http://www.w3.org/1999/02/22-rdf-syntax-ns#"
	 xmlns="http://www.w3.org/2000/svg" xmlns:xlink="http://www.w3.org/1999/xlink" x="0px" y="0px" viewBox="0 0 800 800"
	 style="enable-background:new 0 0 800 800;" xml:space="preserve">
<style type="text/css">
	.st0{fill:#EB6727;}
</style>
<g id="layer1" transform="translate(0,-288.53332)">
	<g>
		<path id="path935_00000132806849920155203950000017344032020860981423_" class="st0" d="M261.6,690.3
			C123.1,745.5,24.9,880.6,24.9,1038.5c-0.1,13.8,11.1,25,24.9,25.1c0.1,0,0.1,0,0.2,0h700c13.8-0.1,25-11.3,24.9-25.1
			c0-157.9-98.2-293-236.6-348.2c-38.3,30-86.3,48.1-138.4,48.1C347.8,738.4,299.8,720.3,261.6,690.3z"/>
		<path id="path940_00000048477779422161052730000001662961668328915881_" class="st0" d="M399.9,313.6
			c-110.2,0-199.9,89.7-199.9,199.9c0,110.2,89.7,200,199.9,200s200-89.9,200-200C600,403.3,510.1,313.6,399.9,313.6z"/>
	</g>
</g>
</svg>
